<?xml version="1.0" encoding="UTF-8"?>
<svg xmlns="http://www.w3.org/2000/svg" viewBox="0 0 1100 1496" width="1100" height="1496" font-family="'Malgun Gothic', 'Segoe UI', sans-serif">
  <defs>
    <filter id="shadow" x="-4%" y="-4%" width="108%" height="112%">
      <feDropShadow dx="0" dy="2" stdDeviation="4" flood-color="#19232F" flood-opacity="0.12"/>
    </filter>
    <filter id="shadowSm" x="-4%" y="-4%" width="108%" height="112%">
      <feDropShadow dx="0" dy="1" stdDeviation="2" flood-color="#19232F" flood-opacity="0.07"/>
    </filter>
    <marker id="arrowBlue" markerWidth="10" markerHeight="8" refX="9" refY="4" orient="auto">
      <polygon points="0,0 10,4 0,8" fill="#1E64DC"/>
    </marker>
    <marker id="arrowViolet" markerWidth="10" markerHeight="8" refX="9" refY="4" orient="auto">
      <polygon points="0,0 10,4 0,8" fill="#6D28D9"/>
    </marker>
    <marker id="arrowGreen" markerWidth="10" markerHeight="8" refX="9" refY="4" orient="auto">
      <polygon points="0,0 10,4 0,8" fill="#199B50"/>
    </marker>
    <marker id="arrowOrange" markerWidth="10" markerHeight="8" refX="9" refY="4" orient="auto">
      <polygon points="0,0 10,4 0,8" fill="#E69B00"/>
    </marker>
    <marker id="arrowPurple" markerWidth="10" markerHeight="8" refX="9" refY="4" orient="auto">
      <polygon points="0,0 10,4 0,8" fill="#8237BE"/>
    </marker>
    <marker id="arrowGray" markerWidth="10" markerHeight="8" refX="9" refY="4" orient="auto">
      <polygon points="0,0 10,4 0,8" fill="#64748b"/>
    </marker>
    <marker id="arrowTeal" markerWidth="10" markerHeight="8" refX="9" refY="4" orient="auto">
      <polygon points="0,0 10,4 0,8" fill="#0097A7"/>
    </marker>
    <marker id="arrowCommL" markerWidth="8" markerHeight="6" refX="0" refY="3" orient="auto">
      <polygon points="8,0 0,3 8,6" fill="#F06420"/>
    </marker>
    <marker id="arrowCommR" markerWidth="8" markerHeight="6" refX="8" refY="3" orient="auto">
      <polygon points="0,0 8,3 0,6" fill="#F06420"/>
    </marker>
  </defs>

  <rect width="1100" height="1446" fill="#F0F4FA"/>

  <!-- ============================================ -->
  <!-- 1. TITLE BAR                                 -->
  <!-- ============================================ -->
  <rect x="50" y="20" width="1000" height="70" rx="14" fill="#1E64DC" filter="url(#shadow)"/>
  <text x="550" y="50" text-anchor="middle" fill="#FFFFFF" font-size="24" font-weight="bold">/platoon-formation</text>
  <text x="550" y="72" text-anchor="middle" fill="#FFFFFF" font-size="13" opacity="0.85">소대장(1) + 연락병(1) + 3분대×13(39) + 용병(4) = 총 45명  |  예비병 3×3 별도</text>

  <!-- ============================================ -->
  <!-- 2. 지휘관 (사용자/PO) + CPC (Web UI)          -->
  <!-- ============================================ -->
  <rect x="245" y="110" width="260" height="48" rx="24" fill="#F59E0B" filter="url(#shadow)"/>
  <text x="375" y="140" text-anchor="middle" fill="#FFFFFF" font-size="18" font-weight="bold">지휘관 (사용자 / PO)</text>

  <!-- 연결선: 지휘관 ↔ CPC -->
  <line x1="505" y1="134" x2="572" y2="134" stroke="#0097A7" stroke-width="2.5"/>
  <line x1="505" y1="130" x2="505" y2="138" stroke="#0097A7" stroke-width="2"/>
  <line x1="572" y1="130" x2="572" y2="138" stroke="#0097A7" stroke-width="2"/>

  <rect x="575" y="110" width="220" height="48" rx="24" fill="#0097A7" filter="url(#shadow)"/>
  <text x="685" y="133" text-anchor="middle" fill="#FFFFFF" font-size="16" font-weight="bold">CPC (Web UI)</text>
  <text x="685" y="150" text-anchor="middle" fill="#E0F7FA" font-size="9">소대 관제 · PO 인터페이스</text>

  <!-- 화살표: 지휘관+CPC → 소대HQ -->
  <line x1="550" y1="158" x2="550" y2="178" stroke="#475569" stroke-width="2.5" marker-end="url(#arrowGray)"/>

  <!-- ============================================ -->
  <!-- 3. 소대 HQ (소대장 + 연락병)                   -->
  <!-- ============================================ -->
  <g filter="url(#shadow)">
    <rect x="200" y="182" width="700" height="100" rx="12" fill="#FFFFFF"/>
    <rect x="200" y="182" width="700" height="40" rx="12" fill="#1E64DC"/>
    <rect x="200" y="206" width="700" height="16" fill="#1E64DC"/>
    <text x="550" y="208" text-anchor="middle" fill="#FFFFFF" font-size="17" font-weight="bold">소대 HQ</text>

    <rect x="270" y="230" width="420" height="42" rx="8" fill="#EBF1FC" stroke="#1E64DC" stroke-width="1.5"/>
    <text x="480" y="256" text-anchor="middle" fill="#19232F" font-size="14" font-weight="bold">소대장 (Opus)  |  Orchestrator</text>

    <rect x="700" y="230" width="188" height="42" rx="6" fill="#14B8A6" stroke="#0D9488" stroke-width="1.5"/>
    <text x="794" y="247" text-anchor="middle" fill="#FFFFFF" font-size="10" font-weight="bold">연락병 (CPC API)</text>
    <text x="794" y="262" text-anchor="middle" fill="#E0FFF8" font-size="9">PO ↔ CPC ↔ 연락병 ↔ 소대장</text>
  </g>

  <!-- ============================================ -->
  <!-- 4. ARROWS: 소대장 → 3 Squads                 -->
  <!-- ============================================ -->
  <line x1="550" y1="282" x2="550" y2="298" stroke="#1E64DC" stroke-width="2"/>
  <line x1="175" y1="298" x2="925" y2="298" stroke="#1E64DC" stroke-width="2"/>
  <line x1="175" y1="298" x2="175" y2="315" stroke="#6D28D9" stroke-width="2" marker-end="url(#arrowViolet)"/>
  <line x1="550" y1="298" x2="550" y2="315" stroke="#199B50" stroke-width="2" marker-end="url(#arrowGreen)"/>
  <line x1="925" y1="298" x2="925" y2="315" stroke="#E69B00" stroke-width="2" marker-end="url(#arrowOrange)"/>

  <!-- Inter-Squad 교신 -->
  <line x1="340" y1="338" x2="400" y2="338" stroke="#F06420" stroke-width="1.5" stroke-dasharray="6,3" marker-start="url(#arrowCommL)" marker-end="url(#arrowCommR)"/>
  <text x="370" y="331" text-anchor="middle" fill="#F06420" font-size="9">교신</text>
  <line x1="700" y1="338" x2="760" y2="338" stroke="#F06420" stroke-width="1.5" stroke-dasharray="6,3" marker-start="url(#arrowCommL)" marker-end="url(#arrowCommR)"/>
  <text x="730" y="331" text-anchor="middle" fill="#F06420" font-size="9">교신</text>

  <!-- ============================================ -->
  <!-- 5-A. 1분대 Alpha (VIOLET)                    -->
  <!-- ============================================ -->
  <g filter="url(#shadow)">
    <rect x="50" y="318" width="300" height="400" rx="12" fill="#FFFFFF"/>
    <rect x="50" y="318" width="300" height="38" rx="12" fill="#6D28D9"/>
    <rect x="50" y="340" width="300" height="16" fill="#6D28D9"/>
    <text x="200" y="342" text-anchor="middle" fill="#FFFFFF" font-size="15" font-weight="bold">1분대  Alpha</text>

    <text x="200" y="374" text-anchor="middle" fill="#F06420" font-size="11" font-weight="bold">분대장 (Teammate)</text>

    <line x1="70" y1="386" x2="330" y2="386" stroke="#E0E6EE" stroke-width="1"/>
    <text x="200" y="402" text-anchor="middle" fill="#19232F" font-size="11" font-weight="bold">정규병 12</text>

    <!-- 12 agents: 2 cols x 6 rows -->
    <rect x="65" y="410" width="135" height="26" rx="5" fill="#F3EEFF"/>
    <text x="132" y="427" text-anchor="middle" fill="#19232F" font-size="9.5" font-weight="bold">Frontend Dev</text>
    <rect x="210" y="410" width="135" height="26" rx="5" fill="#F3EEFF"/>
    <text x="277" y="427" text-anchor="middle" fill="#19232F" font-size="9.5" font-weight="bold">UX/UI Designer</text>

    <rect x="65" y="441" width="135" height="26" rx="5" fill="#F3EEFF"/>
    <text x="132" y="458" text-anchor="middle" fill="#19232F" font-size="9.5" font-weight="bold">API Developer</text>
    <rect x="210" y="441" width="135" height="26" rx="5" fill="#F3EEFF"/>
    <text x="277" y="458" text-anchor="middle" fill="#19232F" font-size="9.5" font-weight="bold">Backend Dev</text>

    <rect x="65" y="472" width="135" height="26" rx="5" fill="#F3EEFF"/>
    <text x="132" y="489" text-anchor="middle" fill="#19232F" font-size="9.5" font-weight="bold">Database Dev</text>
    <rect x="210" y="472" width="135" height="26" rx="5" fill="#F3EEFF"/>
    <text x="277" y="489" text-anchor="middle" fill="#19232F" font-size="9.5" font-weight="bold">Code Reviewer</text>

    <rect x="65" y="503" width="135" height="26" rx="5" fill="#F3EEFF"/>
    <text x="132" y="520" text-anchor="middle" fill="#19232F" font-size="9.5" font-weight="bold">Test Runner</text>
    <rect x="210" y="503" width="135" height="26" rx="5" fill="#F3EEFF"/>
    <text x="277" y="520" text-anchor="middle" fill="#19232F" font-size="9.5" font-weight="bold">Security Specialist</text>

    <rect x="65" y="534" width="135" height="26" rx="5" fill="#F3EEFF"/>
    <text x="132" y="551" text-anchor="middle" fill="#19232F" font-size="9.5" font-weight="bold">DevOps</text>
    <rect x="210" y="534" width="135" height="26" rx="5" fill="#F3EEFF"/>
    <text x="277" y="551" text-anchor="middle" fill="#19232F" font-size="9.5" font-weight="bold">Debugger</text>

    <rect x="65" y="565" width="135" height="26" rx="5" fill="#F3EEFF"/>
    <text x="132" y="582" text-anchor="middle" fill="#19232F" font-size="9.5" font-weight="bold">Doc Writer</text>
    <rect x="210" y="565" width="135" height="26" rx="5" fill="#F3EEFF"/>
    <text x="277" y="582" text-anchor="middle" fill="#19232F" font-size="9.5" font-weight="bold">Content &amp; Copy</text>

    <!-- 예비병 3 -->
    <line x1="70" y1="599" x2="330" y2="599" stroke="#E0E6EE" stroke-width="1"/>
    <text x="200" y="615" text-anchor="middle" fill="#64748b" font-size="11" font-weight="bold">예비병 3</text>

    <rect x="65" y="623" width="90" height="26" rx="5" fill="#F0F2F5" stroke="#94a3b8" stroke-width="1" stroke-dasharray="4,2"/>
    <text x="110" y="640" text-anchor="middle" fill="#64748b" font-size="8.5" font-weight="bold">QA Spec</text>
    <rect x="163" y="623" width="90" height="26" rx="5" fill="#F0F2F5" stroke="#94a3b8" stroke-width="1" stroke-dasharray="4,2"/>
    <text x="208" y="640" text-anchor="middle" fill="#64748b" font-size="8.5" font-weight="bold">Refactoring</text>
    <rect x="261" y="623" width="80" height="26" rx="5" fill="#F0F2F5" stroke="#94a3b8" stroke-width="1" stroke-dasharray="4,2"/>
    <text x="301" y="640" text-anchor="middle" fill="#64748b" font-size="8.5" font-weight="bold">Perf Opt</text>

    <line x1="70" y1="658" x2="330" y2="658" stroke="#E0E6EE" stroke-width="1"/>
    <text x="200" y="677" text-anchor="middle" fill="#6D28D9" font-size="10">TaskUpdate + SendMessage</text>
    <text x="200" y="692" text-anchor="middle" fill="#6D28D9" font-size="10" font-weight="bold">→ 소대장 보고</text>
  </g>

  <!-- ============================================ -->
  <!-- 5-B. 2분대 Bravo (GREEN)                     -->
  <!-- ============================================ -->
  <g filter="url(#shadow)">
    <rect x="400" y="318" width="300" height="400" rx="12" fill="#FFFFFF"/>
    <rect x="400" y="318" width="300" height="38" rx="12" fill="#199B50"/>
    <rect x="400" y="340" width="300" height="16" fill="#199B50"/>
    <text x="550" y="342" text-anchor="middle" fill="#FFFFFF" font-size="15" font-weight="bold">2분대  Bravo</text>

    <text x="550" y="374" text-anchor="middle" fill="#F06420" font-size="11" font-weight="bold">분대장 (Teammate)</text>

    <line x1="420" y1="386" x2="680" y2="386" stroke="#E0E6EE" stroke-width="1"/>
    <text x="550" y="402" text-anchor="middle" fill="#19232F" font-size="11" font-weight="bold">정규병 12</text>

    <rect x="415" y="410" width="135" height="26" rx="5" fill="#E8F5EC"/>
    <text x="482" y="427" text-anchor="middle" fill="#19232F" font-size="9.5" font-weight="bold">Frontend Dev</text>
    <rect x="560" y="410" width="135" height="26" rx="5" fill="#E8F5EC"/>
    <text x="627" y="427" text-anchor="middle" fill="#19232F" font-size="9.5" font-weight="bold">UX/UI Designer</text>

    <rect x="415" y="441" width="135" height="26" rx="5" fill="#E8F5EC"/>
    <text x="482" y="458" text-anchor="middle" fill="#19232F" font-size="9.5" font-weight="bold">API Developer</text>
    <rect x="560" y="441" width="135" height="26" rx="5" fill="#E8F5EC"/>
    <text x="627" y="458" text-anchor="middle" fill="#19232F" font-size="9.5" font-weight="bold">Backend Dev</text>

    <rect x="415" y="472" width="135" height="26" rx="5" fill="#E8F5EC"/>
    <text x="482" y="489" text-anchor="middle" fill="#19232F" font-size="9.5" font-weight="bold">Database Dev</text>
    <rect x="560" y="472" width="135" height="26" rx="5" fill="#E8F5EC"/>
    <text x="627" y="489" text-anchor="middle" fill="#19232F" font-size="9.5" font-weight="bold">Code Reviewer</text>

    <rect x="415" y="503" width="135" height="26" rx="5" fill="#E8F5EC"/>
    <text x="482" y="520" text-anchor="middle" fill="#19232F" font-size="9.5" font-weight="bold">Test Runner</text>
    <rect x="560" y="503" width="135" height="26" rx="5" fill="#E8F5EC"/>
    <text x="627" y="520" text-anchor="middle" fill="#19232F" font-size="9.5" font-weight="bold">Security Specialist</text>

    <rect x="415" y="534" width="135" height="26" rx="5" fill="#E8F5EC"/>
    <text x="482" y="551" text-anchor="middle" fill="#19232F" font-size="9.5" font-weight="bold">DevOps</text>
    <rect x="560" y="534" width="135" height="26" rx="5" fill="#E8F5EC"/>
    <text x="627" y="551" text-anchor="middle" fill="#19232F" font-size="9.5" font-weight="bold">Debugger</text>

    <rect x="415" y="565" width="135" height="26" rx="5" fill="#E8F5EC"/>
    <text x="482" y="582" text-anchor="middle" fill="#19232F" font-size="9.5" font-weight="bold">Doc Writer</text>
    <rect x="560" y="565" width="135" height="26" rx="5" fill="#E8F5EC"/>
    <text x="627" y="582" text-anchor="middle" fill="#19232F" font-size="9.5" font-weight="bold">Content &amp; Copy</text>

    <line x1="420" y1="599" x2="680" y2="599" stroke="#E0E6EE" stroke-width="1"/>
    <text x="550" y="615" text-anchor="middle" fill="#64748b" font-size="11" font-weight="bold">예비병 3</text>

    <rect x="415" y="623" width="90" height="26" rx="5" fill="#F0F2F5" stroke="#94a3b8" stroke-width="1" stroke-dasharray="4,2"/>
    <text x="460" y="640" text-anchor="middle" fill="#64748b" font-size="8.5" font-weight="bold">QA Spec</text>
    <rect x="513" y="623" width="90" height="26" rx="5" fill="#F0F2F5" stroke="#94a3b8" stroke-width="1" stroke-dasharray="4,2"/>
    <text x="558" y="640" text-anchor="middle" fill="#64748b" font-size="8.5" font-weight="bold">Refactoring</text>
    <rect x="611" y="623" width="80" height="26" rx="5" fill="#F0F2F5" stroke="#94a3b8" stroke-width="1" stroke-dasharray="4,2"/>
    <text x="651" y="640" text-anchor="middle" fill="#64748b" font-size="8.5" font-weight="bold">Perf Opt</text>

    <line x1="420" y1="658" x2="680" y2="658" stroke="#E0E6EE" stroke-width="1"/>
    <text x="550" y="677" text-anchor="middle" fill="#199B50" font-size="10">TaskUpdate + SendMessage</text>
    <text x="550" y="692" text-anchor="middle" fill="#199B50" font-size="10" font-weight="bold">→ 소대장 보고</text>
  </g>

  <!-- ============================================ -->
  <!-- 5-C. 3분대 Charlie (ORANGE)                  -->
  <!-- ============================================ -->
  <g filter="url(#shadow)">
    <rect x="750" y="318" width="300" height="400" rx="12" fill="#FFFFFF"/>
    <rect x="750" y="318" width="300" height="38" rx="12" fill="#E69B00"/>
    <rect x="750" y="340" width="300" height="16" fill="#E69B00"/>
    <text x="900" y="342" text-anchor="middle" fill="#FFFFFF" font-size="15" font-weight="bold">3분대  Charlie</text>

    <text x="900" y="374" text-anchor="middle" fill="#F06420" font-size="11" font-weight="bold">분대장 (Teammate)</text>

    <line x1="770" y1="386" x2="1030" y2="386" stroke="#E0E6EE" stroke-width="1"/>
    <text x="900" y="402" text-anchor="middle" fill="#19232F" font-size="11" font-weight="bold">정규병 12</text>

    <rect x="765" y="410" width="135" height="26" rx="5" fill="#FFF5E0"/>
    <text x="832" y="427" text-anchor="middle" fill="#19232F" font-size="9.5" font-weight="bold">Frontend Dev</text>
    <rect x="910" y="410" width="135" height="26" rx="5" fill="#FFF5E0"/>
    <text x="977" y="427" text-anchor="middle" fill="#19232F" font-size="9.5" font-weight="bold">UX/UI Designer</text>

    <rect x="765" y="441" width="135" height="26" rx="5" fill="#FFF5E0"/>
    <text x="832" y="458" text-anchor="middle" fill="#19232F" font-size="9.5" font-weight="bold">API Developer</text>
    <rect x="910" y="441" width="135" height="26" rx="5" fill="#FFF5E0"/>
    <text x="977" y="458" text-anchor="middle" fill="#19232F" font-size="9.5" font-weight="bold">Backend Dev</text>

    <rect x="765" y="472" width="135" height="26" rx="5" fill="#FFF5E0"/>
    <text x="832" y="489" text-anchor="middle" fill="#19232F" font-size="9.5" font-weight="bold">Database Dev</text>
    <rect x="910" y="472" width="135" height="26" rx="5" fill="#FFF5E0"/>
    <text x="977" y="489" text-anchor="middle" fill="#19232F" font-size="9.5" font-weight="bold">Code Reviewer</text>

    <rect x="765" y="503" width="135" height="26" rx="5" fill="#FFF5E0"/>
    <text x="832" y="520" text-anchor="middle" fill="#19232F" font-size="9.5" font-weight="bold">Test Runner</text>
    <rect x="910" y="503" width="135" height="26" rx="5" fill="#FFF5E0"/>
    <text x="977" y="520" text-anchor="middle" fill="#19232F" font-size="9.5" font-weight="bold">Security Specialist</text>

    <rect x="765" y="534" width="135" height="26" rx="5" fill="#FFF5E0"/>
    <text x="832" y="551" text-anchor="middle" fill="#19232F" font-size="9.5" font-weight="bold">DevOps</text>
    <rect x="910" y="534" width="135" height="26" rx="5" fill="#FFF5E0"/>
    <text x="977" y="551" text-anchor="middle" fill="#19232F" font-size="9.5" font-weight="bold">Debugger</text>

    <rect x="765" y="565" width="135" height="26" rx="5" fill="#FFF5E0"/>
    <text x="832" y="582" text-anchor="middle" fill="#19232F" font-size="9.5" font-weight="bold">Doc Writer</text>
    <rect x="910" y="565" width="135" height="26" rx="5" fill="#FFF5E0"/>
    <text x="977" y="582" text-anchor="middle" fill="#19232F" font-size="9.5" font-weight="bold">Content &amp; Copy</text>

    <line x1="770" y1="599" x2="1030" y2="599" stroke="#E0E6EE" stroke-width="1"/>
    <text x="900" y="615" text-anchor="middle" fill="#64748b" font-size="11" font-weight="bold">예비병 3</text>

    <rect x="765" y="623" width="90" height="26" rx="5" fill="#F0F2F5" stroke="#94a3b8" stroke-width="1" stroke-dasharray="4,2"/>
    <text x="810" y="640" text-anchor="middle" fill="#64748b" font-size="8.5" font-weight="bold">QA Spec</text>
    <rect x="863" y="623" width="90" height="26" rx="5" fill="#F0F2F5" stroke="#94a3b8" stroke-width="1" stroke-dasharray="4,2"/>
    <text x="908" y="640" text-anchor="middle" fill="#64748b" font-size="8.5" font-weight="bold">Refactoring</text>
    <rect x="961" y="623" width="80" height="26" rx="5" fill="#F0F2F5" stroke="#94a3b8" stroke-width="1" stroke-dasharray="4,2"/>
    <text x="1001" y="640" text-anchor="middle" fill="#64748b" font-size="8.5" font-weight="bold">Perf Opt</text>

    <line x1="770" y1="658" x2="1030" y2="658" stroke="#E0E6EE" stroke-width="1"/>
    <text x="900" y="677" text-anchor="middle" fill="#E69B00" font-size="10">TaskUpdate + SendMessage</text>
    <text x="900" y="692" text-anchor="middle" fill="#E69B00" font-size="10" font-weight="bold">→ 소대장 보고</text>
  </g>

  <!-- ============================================ -->
  <!-- 6. BRANCH: Squads → Skills (좌) + 용병 (우)   -->
  <!-- ============================================ -->
  <line x1="175" y1="718" x2="175" y2="734" stroke="#64748b" stroke-width="2"/>
  <line x1="550" y1="718" x2="550" y2="734" stroke="#64748b" stroke-width="2"/>
  <line x1="925" y1="718" x2="925" y2="734" stroke="#64748b" stroke-width="2"/>
  <line x1="175" y1="734" x2="925" y2="734" stroke="#64748b" stroke-width="2"/>
  <!-- 좌측 분기 → Skills -->
  <line x1="310" y1="734" x2="310" y2="753" stroke="#059669" stroke-width="2" marker-end="url(#arrowGray)"/>
  <!-- 우측 분기 → 용병 -->
  <line x1="825" y1="734" x2="825" y2="753" stroke="#8237BE" stroke-width="2" marker-end="url(#arrowPurple)"/>

  <!-- ============================================ -->
  <!-- 7. SKILL PACKAGE (좌측, 21 Skills)            -->
  <!-- ============================================ -->
  <g filter="url(#shadow)">
    <rect x="50" y="757" width="520" height="370" rx="12" fill="#FFFFFF"/>
    <rect x="50" y="757" width="520" height="38" rx="12" fill="#059669"/>
    <rect x="50" y="781" width="520" height="14" fill="#059669"/>
    <text x="310" y="783" text-anchor="middle" fill="#FFFFFF" font-size="15" font-weight="bold">Skill Package  |  21 Skills</text>

    <!-- 프로젝트 관리 (1) -->
    <text x="70" y="815" fill="#C0392B" font-size="10" font-weight="bold">프로젝트 관리</text>
    <rect x="70" y="822" width="180" height="22" rx="4" fill="#FBF0F0" stroke="#C0392B" stroke-width="0.8"/>
    <text x="160" y="837" text-anchor="middle" fill="#19232F" font-size="9" font-weight="bold">/sal-grid-dev</text>

    <!-- 팀 편성 (3) -->
    <text x="270" y="815" fill="#D4A017" font-size="10" font-weight="bold">팀 편성</text>
    <rect x="270" y="822" width="140" height="22" rx="4" fill="#FDF8E8" stroke="#D4A017" stroke-width="0.8"/>
    <text x="340" y="837" text-anchor="middle" fill="#19232F" font-size="9" font-weight="bold">/deploy-subagent</text>
    <rect x="416" y="822" width="140" height="22" rx="4" fill="#FDF8E8" stroke="#D4A017" stroke-width="0.8"/>
    <text x="486" y="837" text-anchor="middle" fill="#19232F" font-size="9" font-weight="bold">/deploy-skill</text>

    <rect x="270" y="849" width="140" height="22" rx="4" fill="#FDF8E8" stroke="#D4A017" stroke-width="0.8"/>
    <text x="340" y="864" text-anchor="middle" fill="#19232F" font-size="9" font-weight="bold">/find-skills</text>

    <!-- 개발 & 인프라 (4) -->
    <text x="70" y="888" fill="#27AE60" font-size="10" font-weight="bold">개발 &amp; 인프라</text>
    <rect x="70" y="895" width="120" height="22" rx="4" fill="#EEFBF2" stroke="#27AE60" stroke-width="0.8"/>
    <text x="130" y="910" text-anchor="middle" fill="#19232F" font-size="9" font-weight="bold">/api-builder</text>
    <rect x="196" y="895" width="120" height="22" rx="4" fill="#EEFBF2" stroke="#27AE60" stroke-width="0.8"/>
    <text x="256" y="910" text-anchor="middle" fill="#19232F" font-size="9" font-weight="bold">/ui-ux-builder</text>
    <rect x="322" y="895" width="110" height="22" rx="4" fill="#FFF8F0" stroke="#92400e" stroke-width="0.8"/>
    <text x="377" y="910" text-anchor="middle" fill="#19232F" font-size="9" font-weight="bold">/db-schema</text>
    <rect x="438" y="895" width="118" height="22" rx="4" fill="#F0F2F5" stroke="#1f2937" stroke-width="0.8"/>
    <text x="497" y="910" text-anchor="middle" fill="#19232F" font-size="9" font-weight="bold">/cicd-setup</text>

    <!-- 콘텐츠 & 생성 (4) -->
    <text x="70" y="935" fill="#7c3aed" font-size="10" font-weight="bold">콘텐츠 &amp; 생성</text>
    <rect x="70" y="942" width="120" height="22" rx="4" fill="#F3EEF9" stroke="#7c3aed" stroke-width="0.8"/>
    <text x="130" y="957" text-anchor="middle" fill="#19232F" font-size="9" font-weight="bold">/slideshow-web</text>
    <rect x="196" y="942" width="130" height="22" rx="4" fill="#F3EEF9" stroke="#7c3aed" stroke-width="0.8"/>
    <text x="261" y="957" text-anchor="middle" fill="#19232F" font-size="9" font-weight="bold">/youtube-generate</text>
    <rect x="332" y="942" width="110" height="22" rx="4" fill="#F3EEF9" stroke="#7c3aed" stroke-width="0.8"/>
    <text x="387" y="957" text-anchor="middle" fill="#19232F" font-size="9" font-weight="bold">/create-image</text>
    <rect x="448" y="942" width="110" height="22" rx="4" fill="#F3EEF9" stroke="#7c3aed" stroke-width="0.8"/>
    <text x="503" y="957" text-anchor="middle" fill="#19232F" font-size="9" font-weight="bold">/doc-generator</text>

    <!-- 품질 & 보안 (6) -->
    <text x="70" y="982" fill="#1e3a5f" font-size="10" font-weight="bold">품질 &amp; 보안</text>
    <rect x="70" y="989" width="130" height="22" rx="4" fill="#FBF0F0" stroke="#C0392B" stroke-width="0.8"/>
    <text x="135" y="1004" text-anchor="middle" fill="#19232F" font-size="9" font-weight="bold">/review-evaluate</text>
    <rect x="206" y="989" width="120" height="22" rx="4" fill="#FFF0F0" stroke="#991b1b" stroke-width="0.8"/>
    <text x="266" y="1004" text-anchor="middle" fill="#19232F" font-size="9" font-weight="bold">/security-audit</text>
    <rect x="332" y="989" width="110" height="22" rx="4" fill="#F5F4F2" stroke="#44403c" stroke-width="0.8"/>
    <text x="387" y="1004" text-anchor="middle" fill="#19232F" font-size="9" font-weight="bold">/troubleshoot</text>

    <rect x="70" y="1016" width="100" height="22" rx="4" fill="#EEF3FB" stroke="#1e3a5f" stroke-width="0.8"/>
    <text x="120" y="1031" text-anchor="middle" fill="#19232F" font-size="9" font-weight="bold">/e2e-test</text>
    <rect x="176" y="1016" width="100" height="22" rx="4" fill="#EEF3FB" stroke="#1e3a5f" stroke-width="0.8"/>
    <text x="226" y="1031" text-anchor="middle" fill="#19232F" font-size="9" font-weight="bold">/api-test</text>
    <rect x="282" y="1016" width="140" height="22" rx="4" fill="#FAFAE8" stroke="#3f3f00" stroke-width="0.8"/>
    <text x="352" y="1031" text-anchor="middle" fill="#19232F" font-size="9" font-weight="bold">/performance-check</text>

    <!-- CPC 인프라 (3) -->
    <text x="70" y="1056" fill="#0097A7" font-size="10" font-weight="bold">CPC 인프라</text>
    <rect x="70" y="1063" width="110" height="22" rx="4" fill="#E0F7FA" stroke="#0097A7" stroke-width="0.8"/>
    <text x="125" y="1078" text-anchor="middle" fill="#19232F" font-size="9" font-weight="bold">/cpc-setup</text>
    <rect x="186" y="1063" width="130" height="22" rx="4" fill="#E0F7FA" stroke="#0097A7" stroke-width="0.8"/>
    <text x="251" y="1078" text-anchor="middle" fill="#19232F" font-size="9" font-weight="bold">/cpc-add-project</text>
    <rect x="322" y="1063" width="110" height="22" rx="4" fill="#E0F7FA" stroke="#0097A7" stroke-width="0.8"/>
    <text x="377" y="1078" text-anchor="middle" fill="#19232F" font-size="9" font-weight="bold">/cpc-engage</text>

    <line x1="70" y1="1097" x2="550" y2="1097" stroke="#E0E6EE" stroke-width="1"/>
    <text x="310" y="1115" text-anchor="middle" fill="#059669" font-size="10">소대장 / 분대장 / 서브에이전트 공용</text>
  </g>

  <!-- ============================================ -->
  <!-- 8. 용병 풀 (우측, 4명 외부 AI)                 -->
  <!-- ============================================ -->
  <g filter="url(#shadow)">
    <rect x="610" y="757" width="440" height="170" rx="12" fill="#FFFFFF"/>
    <rect x="610" y="757" width="440" height="38" rx="12" fill="#8237BE"/>
    <rect x="610" y="781" width="440" height="14" fill="#8237BE"/>
    <text x="830" y="783" text-anchor="middle" fill="#FFFFFF" font-size="15" font-weight="bold">용병 풀  |  4명 외부 AI</text>
    <text x="830" y="815" text-anchor="middle" fill="#3C4650" font-size="11">소대장·분대장이 필요 시 호출</text>

    <rect x="625" y="829" width="200" height="44" rx="8" fill="#F3EDFC" stroke="#8237BE" stroke-width="1" stroke-opacity="0.4"/>
    <text x="725" y="847" text-anchor="middle" fill="#19232F" font-size="12" font-weight="bold">Codex</text>
    <text x="725" y="863" text-anchor="middle" fill="#3C4650" font-size="9">코드 생성 / 리팩토링  |  CLI</text>

    <rect x="835" y="829" width="200" height="44" rx="8" fill="#F3EDFC" stroke="#8237BE" stroke-width="1" stroke-opacity="0.4"/>
    <text x="935" y="847" text-anchor="middle" fill="#19232F" font-size="12" font-weight="bold">Gemini</text>
    <text x="935" y="863" text-anchor="middle" fill="#3C4650" font-size="9">대용량 분석 / 2M Context  |  CLI</text>

    <rect x="625" y="879" width="200" height="44" rx="8" fill="#F3EDFC" stroke="#8237BE" stroke-width="1" stroke-opacity="0.4"/>
    <text x="725" y="897" text-anchor="middle" fill="#19232F" font-size="12" font-weight="bold">Grok</text>
    <text x="725" y="913" text-anchor="middle" fill="#3C4650" font-size="9">실시간 검색 / 트렌드  |  CLI</text>

    <rect x="835" y="879" width="200" height="44" rx="8" fill="#F3EDFC" stroke="#8237BE" stroke-width="1" stroke-opacity="0.4"/>
    <text x="935" y="897" text-anchor="middle" fill="#19232F" font-size="12" font-weight="bold">Perplexity</text>
    <text x="935" y="913" text-anchor="middle" fill="#3C4650" font-size="9">리서치 / 최신 정보 수집  |  MCP</text>
  </g>

  <!-- ============================================ -->
  <!-- 9. CPC 참고사항 (하단)                        -->
  <!-- ============================================ -->
  <line x1="310" y1="1127" x2="310" y2="1143" stroke="#0097A7" stroke-width="1.5" stroke-dasharray="4,3"/>

  <g filter="url(#shadowSm)">
    <rect x="50" y="1147" width="1000" height="104" rx="10" fill="#FAFCFE" stroke="#B2EBF2" stroke-width="1.5" stroke-dasharray="6,3"/>
    <text x="75" y="1170" fill="#0097A7" font-size="12" font-weight="bold">CPC (Claude Platoons Control) 참고</text>
    <text x="75" y="1188" fill="#5A6B7D" font-size="10">① /cpc-setup — 1회 인프라 구축 (Supabase + Vercel + 관제 Web UI 배포)</text>
    <text x="75" y="1204" fill="#5A6B7D" font-size="10">② /cpc-add-project — 신규 프로젝트 CPC 등록 · 소대 생성 · Agent Server 폴더 자동 구성</text>
    <text x="75" y="1220" fill="#5A6B7D" font-size="10">③ /cpc-engage — 매 세션 소대장 접속 · Agent Server 가동</text>
    <text x="75" y="1236" fill="#5A6B7D" font-size="10">관제 시스템 — 사용자(PO) → CPC(Web UI) → CPC API → 연락병 → 소대장  |  최대 15 소대 관리</text>
  </g>

  <!-- ============================================ -->
  <!-- 10. 운용 프로세스 타임라인                      -->
  <!-- ============================================ -->
  <g filter="url(#shadow)">
    <rect x="50" y="1271" width="1000" height="110" rx="12" fill="#FFFFFF"/>
    <rect x="50" y="1271" width="1000" height="34" rx="12" fill="#1e293b"/>
    <rect x="50" y="1291" width="1000" height="14" fill="#1e293b"/>
    <text x="550" y="1294" text-anchor="middle" fill="#e2e8f0" font-size="14" font-weight="bold">운용 프로세스</text>

    <!-- 타임라인 화살표 -->
    <line x1="80" y1="1335" x2="1020" y2="1335" stroke="#94a3b8" stroke-width="2.5" marker-end="url(#arrowGray)"/>

    <!-- Step 1: 편성 -->
    <circle cx="105" cy="1335" r="10" fill="#1E64DC"/>
    <text x="105" y="1339" text-anchor="middle" font-size="9" font-weight="bold" fill="#fff">1</text>
    <text x="105" y="1363" text-anchor="middle" font-size="10" font-weight="bold" fill="#334155">편성</text>

    <!-- Step 2: 임무 부여 (PO 개입①) -->
    <circle cx="230" cy="1335" r="10" fill="#F59E0B"/>
    <text x="230" y="1339" text-anchor="middle" font-size="9" font-weight="bold" fill="#fff">2</text>
    <text x="230" y="1363" text-anchor="middle" font-size="10" font-weight="bold" fill="#334155">임무 부여</text>
    <text x="230" y="1321" text-anchor="middle" font-size="9" font-weight="bold" fill="#d97706">PO 개입</text>

    <!-- Step 3: 분대 배치 -->
    <circle cx="355" cy="1335" r="10" fill="#1E64DC"/>
    <text x="355" y="1339" text-anchor="middle" font-size="9" font-weight="bold" fill="#fff">3</text>
    <text x="355" y="1363" text-anchor="middle" font-size="10" font-weight="bold" fill="#334155">분대 배치</text>

    <!-- Step 4: 스킬 장착 -->
    <circle cx="480" cy="1335" r="10" fill="#1E64DC"/>
    <text x="480" y="1339" text-anchor="middle" font-size="9" font-weight="bold" fill="#fff">4</text>
    <text x="480" y="1363" text-anchor="middle" font-size="10" font-weight="bold" fill="#334155">스킬 장착</text>

    <!-- Step 5: 작전 승인 (PO 개입②) -->
    <circle cx="605" cy="1335" r="10" fill="#F59E0B"/>
    <text x="605" y="1339" text-anchor="middle" font-size="9" font-weight="bold" fill="#fff">5</text>
    <text x="605" y="1363" text-anchor="middle" font-size="10" font-weight="bold" fill="#334155">작전 승인</text>
    <text x="605" y="1321" text-anchor="middle" font-size="9" font-weight="bold" fill="#d97706">PO 개입</text>

    <!-- Step 6: 임무 수행 -->
    <circle cx="730" cy="1335" r="10" fill="#1E64DC"/>
    <text x="730" y="1339" text-anchor="middle" font-size="9" font-weight="bold" fill="#fff">6</text>
    <text x="730" y="1363" text-anchor="middle" font-size="10" font-weight="bold" fill="#334155">임무 수행</text>

    <!-- Step 7: 결과 종합 -->
    <circle cx="855" cy="1335" r="10" fill="#1E64DC"/>
    <text x="855" y="1339" text-anchor="middle" font-size="9" font-weight="bold" fill="#fff">7</text>
    <text x="855" y="1363" text-anchor="middle" font-size="10" font-weight="bold" fill="#334155">결과 종합</text>

    <!-- Step 8: 해산 (PO 개입③) -->
    <circle cx="980" cy="1335" r="10" fill="#F59E0B"/>
    <text x="980" y="1339" text-anchor="middle" font-size="9" font-weight="bold" fill="#fff">8</text>
    <text x="980" y="1363" text-anchor="middle" font-size="10" font-weight="bold" fill="#334155">해산</text>
    <text x="980" y="1321" text-anchor="middle" font-size="9" font-weight="bold" fill="#d97706">PO 개입</text>
  </g>

  <!-- ============================================ -->
  <!-- FOOTER                                       -->
  <!-- ============================================ -->
  <text x="550" y="1436" text-anchor="middle" fill="#AABBCC" font-size="10">SAL Grid Dev Suite V3.1  |  Platoon Formation · White Tiger 백호  |  Built with Claude Code  |  2026</text>
  <text x="550" y="1456" text-anchor="middle" fill="#C0C8D4" font-size="9">특허 출원번호 10-2026-0041235</text>
  <text x="550" y="1472" text-anchor="middle" fill="#C0C8D4" font-size="9">군 소대 편제를 응용한 계층적 다중 AI 에이전트 작업팀 편성·운용 시스템 및 방법</text>

</svg>
